<svg xmlns="http://www.w3.org/2000/svg" xmlns:xlink="http://www.w3.org/1999/xlink" width="35" height="34" viewBox="0 0 35 34">
    <defs>
        <path id="a" d="M0 0h35v34H0z"/>
    </defs>
    <g fill="none" fill-rule="evenodd">
        <mask id="b" fill="#fff">
            <use xlink:href="#a"/>
        </mask>
        <path fill="#FFF" d="M13.281 7.882c.13.126.29.19.48.19s.353-.067.489-.2a.639.639 0 0 0 .204-.474.639.639 0 0 0-.204-.475.677.677 0 0 0-.489-.198c-.19 0-.35.066-.48.198a.653.653 0 0 0-.195.475c0 .184.065.345.195.484zm7.482 0c.142.126.308.19.498.19s.35-.067.48-.2a.653.653 0 0 0 .195-.474.653.653 0 0 0-.195-.475.647.647 0 0 0-.48-.198.677.677 0 0 0-.489.198.639.639 0 0 0-.204.475c0 .184.065.345.195.484zM6.83 11.248c.498 0 .925.173 1.28.518.355.345.533.76.533 1.243v7.423c0 .495-.175.915-.524 1.26-.35.346-.78.518-1.289.518-.509 0-.941-.172-1.297-.518A1.69 1.69 0 0 1 5 20.432V13.01c0-.484.178-.898.533-1.243a1.792 1.792 0 0 1 1.297-.518zm18.838.328v11.497c0 .53-.19.979-.569 1.347-.379.368-.835.552-1.368.552h-1.333v3.92c0 .494-.178.914-.533 1.26a1.792 1.792 0 0 1-1.297.517c-.51 0-.942-.172-1.298-.518a1.69 1.69 0 0 1-.533-1.26v-3.919h-2.452v3.92c0 .494-.178.914-.533 1.26a1.792 1.792 0 0 1-1.298.517c-.497 0-.924-.172-1.28-.518a1.69 1.69 0 0 1-.532-1.26l-.018-3.919h-1.315a1.915 1.915 0 0 1-1.386-.552 1.806 1.806 0 0 1-.569-1.347V11.576h16.314zm-4.123-6.992c1.268.633 2.28 1.516 3.039 2.65a6.555 6.555 0 0 1 1.137 3.72H9.283c0-1.346.379-2.586 1.137-3.72.758-1.134 1.777-2.017 3.057-2.65l-1.262-2.261c-.083-.15-.053-.265.089-.346.154-.069.272-.034.355.104l1.28 2.279a8.956 8.956 0 0 1 3.572-.725c1.256 0 2.446.241 3.572.725l1.28-2.279c.082-.138.201-.173.355-.104.142.08.172.196.089.346l-1.262 2.261zm8.477 8.425v7.423c0 .495-.178.915-.533 1.26a1.792 1.792 0 0 1-1.297.518c-.498 0-.925-.172-1.28-.518a1.69 1.69 0 0 1-.533-1.26V13.01c0-.495.178-.912.533-1.252.355-.34.782-.51 1.28-.51.509 0 .941.17 1.297.51.355.34.533.757.533 1.252z" mask="url(#b)"/>
    </g>
</svg>
