<svg xmlns="http://www.w3.org/2000/svg" xmlns:xlink="http://www.w3.org/1999/xlink" width="35" height="34" viewBox="0 0 35 34">
    <defs>
        <path id="a" d="M0 0h35v34H0z"/>
    </defs>
    <g fill="none" fill-rule="evenodd">
        <mask id="b" fill="#fff">
            <use xlink:href="#a"/>
        </mask>
        <path fill="#FFF" d="M30.31 24.235c-.491 1.53-1.265 3.058-2.323 4.587-1.624 2.398-3.242 3.596-4.854 3.596-.617 0-1.498-.195-2.644-.587-1.083-.391-2.034-.587-2.852-.587-.768 0-1.662.202-2.682.606-1.02.416-1.851.623-2.493.623-1.914 0-3.81-1.584-5.686-4.752C4.926 24.53 4 21.453 4 18.493c0-2.79.711-5.077 2.134-6.863 1.423-1.76 3.211-2.642 5.364-2.642.907 0 2.021.184 3.343.55 1.31.368 2.179.551 2.607.551.566 0 1.467-.208 2.7-.624 1.285-.415 2.374-.623 3.268-.623 1.499 0 2.84.397 4.023 1.192.655.44 1.31 1.052 1.965 1.835-.995.82-1.713 1.541-2.154 2.165-.818 1.15-1.227 2.416-1.227 3.798 0 1.517.434 2.88 1.303 4.092.869 1.21 1.863 1.981 2.984 2.311zM23.208 2.713c0 .747-.182 1.578-.547 2.496-.378.917-.964 1.761-1.757 2.532-.68.66-1.36 1.1-2.04 1.32-.466.135-1.12.24-1.964.313.038-1.823.529-3.395 1.473-4.716.932-1.308 2.506-2.214 4.722-2.715.013.037.028.104.047.202.02.098.035.165.048.202 0 .048.003.11.009.183.006.073.01.135.01.183z" mask="url(#b)"/>
    </g>
</svg>
