<svg xmlns="http://www.w3.org/2000/svg" xmlns:xlink="http://www.w3.org/1999/xlink" width="59" height="58" viewBox="0 0 59 58">
    <defs>
        <path id="a" d="M0 0h59v58H0z"/>
    </defs>
    <g fill="none" fill-rule="evenodd">
        <mask id="b" fill="#fff">
            <use xlink:href="#a"/>
        </mask>
        <path fill="#FC3" stroke="#FC3" stroke-width=".9" d="M46.106 33.251a.742.742 0 0 0-1.004.257L36.683 47.54c-.608 1.029-1.957 1.383-2.977.807l-1.64-1.038a.744.744 0 0 0-1.016.212.708.708 0 0 0 .217.992l1.672 1.058a3.71 3.71 0 0 0 1.83.48c1.27 0 2.505-.642 3.183-1.789l8.416-14.029a.709.709 0 0 0-.262-.982M52 10.59v11.483c0 2.221-.723 3.876-2.418 5.532L27.77 48.95A3.691 3.691 0 0 1 25.174 50c-.98 0-1.903-.373-2.596-1.05L9.076 35.754A3.523 3.523 0 0 1 8 33.216c0-.958.382-1.859 1.076-2.537L28.152 12.06c-4.987-1.108-8.084-1.183-8.99-.923.382.382 1.574 1.195 4.45 2.304a.713.713 0 0 1 .415.93.74.74 0 0 1-.952.405c-5.955-2.295-5.606-3.566-5.475-4.045.273-.997 1.725-1.33 4.708-1.074 2.427.206 5.56.79 8.82 1.645 2.133.558 12.733 3.477 12.01 6.117-.265.963-1.64 1.081-2.09 1.12l-.066.003a.729.729 0 0 1-.731-.655.723.723 0 0 1 .667-.778c.313-.027.521-.068.656-.105-.315-.32-1.11-.822-2.382-1.417-.267.439-.411.944-.411 1.46 0 1.584 1.317 2.871 2.937 2.871 1.62 0 2.938-1.287 2.938-2.87 0-1.584-1.318-2.872-2.938-2.872a.726.726 0 0 1-.734-.717c0-.397.328-.718.734-.718 2.43 0 4.407 1.931 4.407 4.306s-1.977 4.307-4.407 4.307c-2.43 0-4.406-1.932-4.406-4.307 0-.72.194-1.42.54-2.047-1.758-.721-4.115-1.53-7.103-2.312-.315-.082-.619-.157-.922-.233L10.114 31.694a2.113 2.113 0 0 0-.645 1.522c0 .576.229 1.116.645 1.523l13.503 13.196c.83.813 2.282.812 3.115 0l21.81-21.346c1.432-1.398 1.99-2.664 1.99-4.517V10.59c0-1.187-.99-2.154-2.204-2.154h-11.75c-1.895 0-3.192.545-4.622 1.943a.746.746 0 0 1-1.039 0 .706.706 0 0 1 0-1.015C32.612 7.707 34.305 7 36.577 7h11.75C50.354 7 52 8.61 52 10.589" mask="url(#b)"/>
    </g>
</svg>
